<svg width="56" height="80" viewBox="0 0 56 80" fill="none" xmlns="http://www.w3.org/2000/svg">
<mask id="mask0_4_299" style="mask-type:alpha" maskUnits="userSpaceOnUse" x="0" y="0" width="56" height="56">
<rect width="56" height="56" fill="#D9D9D9"/>
</mask>
<g mask="url(#mask0_4_299)">
<path d="M7.70001 46.6667C6.76667 46.6667 5.95001 46.3167 5.25001 45.6167C4.55001 44.9167 4.20001 44.1 4.20001 43.1667V12.8333C4.20001 11.9 4.55001 11.0833 5.25001 10.3833C5.95001 9.68333 6.76667 9.33333 7.70001 9.33333H48.3C49.2333 9.33333 50.05 9.68333 50.75 10.3833C51.45 11.0833 51.8 11.9 51.8 12.8333H33.8333C31.85 12.8333 30.1875 13.5139 28.8458 14.875C27.5042 16.2361 26.8333 17.8889 26.8333 19.8333V21H14V24.5H26.8333V31.5H14V35H27.0083C27.4361 37.6833 28.4472 40.0458 30.0417 42.0875C31.6361 44.1292 33.6583 45.6556 36.1083 46.6667H7.70001ZM43.75 51.3333C42.7875 51.3333 41.9635 50.9906 41.2781 50.3052C40.5927 49.6198 40.25 48.7958 40.25 47.8333V44.2167C37.4111 43.7889 35.0486 42.4958 33.1625 40.3375C31.2764 38.1792 30.3333 35.6222 30.3333 32.6667V19.8333C30.3333 18.8708 30.6688 18.0469 31.3396 17.3615C32.0104 16.676 32.8417 16.3333 33.8333 16.3333H50.1667C51.1292 16.3333 51.9531 16.676 52.6385 17.3615C53.324 18.0469 53.6667 18.8708 53.6667 19.8333V32.6667C53.6667 35.6222 52.7139 38.1792 50.8083 40.3375C48.9028 42.4958 46.55 43.7889 43.75 44.2167V47.8333H51.3333V51.3333H43.75ZM46.0833 30.9167H50.4583V19.5417H33.5417V26.25H36.75C37.9357 26.25 39.0585 26.5222 40.1185 27.0667C41.1784 27.6111 42.0778 28.35 42.8167 29.2833C43.2056 29.8278 43.682 30.2361 44.2458 30.5083C44.8097 30.7806 45.4222 30.9167 46.0833 30.9167Z" fill="url(#paint0_linear_4_299)"/>
</g>
<path d="M11.1787 73.2666C9.93457 73.2666 8.80046 73.0339 7.77637 72.5684C6.75228 72.1029 5.86784 71.4512 5.12305 70.6133C4.38672 69.7669 3.81966 68.7767 3.42188 67.6426C3.02409 66.5 2.8252 65.2516 2.8252 63.8975V63.6182C2.8252 62.2725 3.02409 61.0326 3.42188 59.8984C3.81966 58.7559 4.38672 57.7614 5.12305 56.915C5.85938 56.0687 6.73958 55.4128 7.76367 54.9473C8.78776 54.4818 9.92188 54.249 11.166 54.249C12.4186 54.249 13.5612 54.4818 14.5938 54.9473C15.6263 55.4128 16.515 56.0687 17.2598 56.915C18.0046 57.7614 18.5758 58.7559 18.9736 59.8984C19.3799 61.0326 19.583 62.2725 19.583 63.6182V63.8975C19.583 65.2516 19.3799 66.5 18.9736 67.6426C18.5758 68.7767 18.0046 69.7669 17.2598 70.6133C16.515 71.4512 15.6263 72.1029 14.5938 72.5684C13.5697 73.0339 12.4313 73.2666 11.1787 73.2666ZM11.1787 70.3848C12.2282 70.3848 13.0999 70.1139 13.7939 69.5723C14.488 69.0306 15.0085 68.2731 15.3555 67.2998C15.7109 66.3265 15.8887 65.1924 15.8887 63.8975V63.5928C15.8887 62.3148 15.7109 61.1934 15.3555 60.2285C15 59.2552 14.471 58.4977 13.7686 57.9561C13.0745 57.4144 12.207 57.1436 11.166 57.1436C10.1335 57.1436 9.27441 57.4144 8.58887 57.9561C7.90332 58.4893 7.38704 59.2383 7.04004 60.2031C6.7015 61.168 6.53223 62.2979 6.53223 63.5928V63.8975C6.53223 65.1924 6.7015 66.3265 7.04004 67.2998C7.38704 68.2731 7.90332 69.0306 8.58887 69.5723C9.28288 70.1139 10.1462 70.3848 11.1787 70.3848ZM21.0684 73V70.7783L23.0361 70.3975V57.1309L21.0684 56.75V54.5156H29.8281C31.25 54.5156 32.4688 54.7357 33.4844 55.1758C34.5 55.6159 35.2786 56.2464 35.8203 57.0674C36.3704 57.8883 36.6455 58.8743 36.6455 60.0254C36.6455 61.1087 36.3747 62.0778 35.833 62.9326C35.2913 63.7874 34.5381 64.4603 33.5732 64.9512C32.6084 65.4421 31.4954 65.6917 30.2344 65.7002H26.7432V70.3975L28.7236 70.7783V73H21.0684ZM32.9639 73L29.8535 65.0146L33.1924 64.1895L35.8838 70.4102L37.458 70.7783V73H32.9639ZM26.7432 62.8438H29.7646C30.8311 62.8438 31.6266 62.6195 32.1514 62.1709C32.6846 61.7139 32.9512 61.0537 32.9512 60.1904C32.9512 59.3356 32.6888 58.6543 32.1641 58.1465C31.6393 57.6302 30.8607 57.3721 29.8281 57.3721H26.7432V62.8438ZM46.4844 73.2666C45.1217 73.2666 43.8818 73.1143 42.7646 72.8096C41.6475 72.5049 40.5472 71.9759 39.4639 71.2227V66.7539H42.333L42.7266 69.3818C43.1074 69.7035 43.6322 69.9658 44.3008 70.1689C44.9694 70.3636 45.6973 70.4609 46.4844 70.4609C47.153 70.4609 47.7158 70.3678 48.1729 70.1816C48.6383 69.9954 48.9896 69.7331 49.2266 69.3945C49.472 69.0475 49.5947 68.6413 49.5947 68.1758C49.5947 67.7357 49.4847 67.3464 49.2646 67.0078C49.0531 66.6608 48.6976 66.3477 48.1982 66.0684C47.7074 65.7806 47.0387 65.5055 46.1924 65.2432C44.7282 64.8115 43.5137 64.3418 42.5488 63.834C41.5924 63.3177 40.873 62.7041 40.3906 61.9932C39.9167 61.2738 39.6797 60.4105 39.6797 59.4033C39.6797 58.4046 39.9548 57.5244 40.5049 56.7627C41.0635 55.9925 41.8337 55.3874 42.8154 54.9473C43.7972 54.5072 44.9313 54.2786 46.2178 54.2617C47.6396 54.2448 48.8965 54.4141 49.9883 54.7695C51.0885 55.125 52.0365 55.6201 52.832 56.2549V60.4189H50.0518L49.5693 57.8799C49.2477 57.6768 48.8118 57.499 48.2617 57.3467C47.7201 57.1943 47.1022 57.1182 46.4082 57.1182C45.8158 57.1182 45.291 57.207 44.834 57.3848C44.3854 57.5625 44.0299 57.8206 43.7676 58.1592C43.5052 58.4977 43.374 58.9082 43.374 59.3906C43.374 59.8053 43.4883 60.1693 43.7168 60.4824C43.9453 60.7871 44.3262 61.0791 44.8594 61.3584C45.401 61.6292 46.1458 61.9212 47.0938 62.2344C49.1335 62.8014 50.6781 63.5505 51.7275 64.4814C52.7855 65.4124 53.3145 66.6354 53.3145 68.1504C53.3145 69.1999 53.0309 70.1097 52.4639 70.8799C51.8968 71.6416 51.1012 72.2298 50.0771 72.6445C49.0531 73.0592 47.8555 73.2666 46.4844 73.2666Z" fill="url(#paint1_linear_4_299)"/>
<defs>
<linearGradient id="paint0_linear_4_299" x1="28.9333" y1="9.33333" x2="28.9333" y2="51.3333" gradientUnits="userSpaceOnUse">
<stop stop-color="#BEC1C9"/>
<stop offset="0.325167" stop-color="#969BA9"/>
<stop offset="0.651573" stop-color="#5B6378"/>
<stop offset="1" stop-color="#293041"/>
</linearGradient>
<linearGradient id="paint1_linear_4_299" x1="28.5" y1="46" x2="28.5" y2="80" gradientUnits="userSpaceOnUse">
<stop stop-color="#BEC1C9"/>
<stop offset="0.325167" stop-color="#969BA9"/>
<stop offset="0.651573" stop-color="#5B6378"/>
<stop offset="1" stop-color="#293041"/>
</linearGradient>
</defs>
</svg>
