<svg width="64" height="64" viewBox="0 0 64 64" fill="none" xmlns="http://www.w3.org/2000/svg">
<mask id="mask0_4_254" style="mask-type:alpha" maskUnits="userSpaceOnUse" x="0" y="0" width="64" height="64">
<rect width="64" height="64" fill="#D9D9D9"/>
</mask>
<g mask="url(#mask0_4_254)">
<path d="M50.2663 58.6C49.9108 58.6 49.5775 58.5444 49.2663 58.4333C48.9552 58.3222 48.6663 58.1333 48.3997 57.8666L34.7997 44.2666C34.533 44 34.3441 43.7111 34.233 43.4C34.1219 43.0889 34.0663 42.7555 34.0663 42.4C34.0663 42.0444 34.1219 41.7111 34.233 41.4C34.3441 41.0889 34.533 40.8 34.7997 40.5333L40.4663 34.8666C40.733 34.6 41.0219 34.4111 41.333 34.3C41.6441 34.1889 41.9775 34.1333 42.333 34.1333C42.6886 34.1333 43.0219 34.1889 43.333 34.3C43.6441 34.4111 43.933 34.6 44.1997 34.8666L57.7997 48.4666C58.0663 48.7333 58.2552 49.0222 58.3663 49.3333C58.4775 49.6444 58.533 49.9777 58.533 50.3333C58.533 50.6889 58.4775 51.0222 58.3663 51.3333C58.2552 51.6444 58.0663 51.9333 57.7997 52.2L52.133 57.8666C51.8663 58.1333 51.5775 58.3222 51.2663 58.4333C50.9552 58.5444 50.6219 58.6 50.2663 58.6ZM50.2663 52.2666L52.1997 50.3333L42.3997 40.5333L40.4663 42.4666L50.2663 52.2666ZM13.6663 58.6666C13.3108 58.6666 12.9663 58.6 12.633 58.4666C12.2997 58.3333 11.9997 58.1333 11.733 57.8666L6.13301 52.2666C5.86634 52 5.66634 51.7 5.53301 51.3666C5.39967 51.0333 5.33301 50.6889 5.33301 50.3333C5.33301 49.9777 5.39967 49.6444 5.53301 49.3333C5.66634 49.0222 5.86634 48.7333 6.13301 48.4666L20.2663 34.3333H25.933L28.1997 32.0666L17.1997 21.0666H13.3997L5.33301 13L12.8663 5.46663L20.933 13.5333V17.3333L31.933 28.3333L39.6663 20.6L36.7997 17.7333L40.533 14H32.9997L31.133 12.1333L40.5997 2.66663L42.4663 4.53329V12.0666L46.1997 8.33329L55.6663 17.8C56.4219 18.5555 56.9997 19.4111 57.3997 20.3666C57.7997 21.3222 57.9997 22.3333 57.9997 23.4C57.9997 24.4666 57.7997 25.4888 57.3997 26.4666C56.9997 27.4444 56.4219 28.3111 55.6663 29.0666L49.9997 23.4L46.2663 27.1333L43.4663 24.3333L29.6663 38.1333V43.7333L15.533 57.8666C15.2663 58.1333 14.9775 58.3333 14.6663 58.4666C14.3552 58.6 14.0219 58.6666 13.6663 58.6666ZM13.6663 52.2666L24.9997 40.9333V39H23.0663L11.733 50.3333L13.6663 52.2666ZM13.6663 52.2666L11.733 50.3333L12.733 51.2666L13.6663 52.2666Z" fill="#293041"/>
</g>
</svg>
