<svg width="64" height="64" viewBox="0 0 64 64" fill="none" xmlns="http://www.w3.org/2000/svg">
<mask id="mask0_4_266" style="mask-type:alpha" maskUnits="userSpaceOnUse" x="0" y="0" width="64" height="64">
<rect width="64" height="64" fill="#D9D9D9"/>
</mask>
<g mask="url(#mask0_4_266)">
<path d="M47.9997 56L55.9997 48L54.133 46.1334L49.333 50.9334V40H46.6663V50.9334L41.8663 46.1334L39.9997 48L47.9997 56ZM26.6663 16H37.333V10.6667H26.6663V16ZM47.9997 61.3334C44.3108 61.3334 41.1663 60.0334 38.5663 57.4334C35.9663 54.8334 34.6663 51.6889 34.6663 48C34.6663 44.3112 35.9663 41.1667 38.5663 38.5667C41.1663 35.9667 44.3108 34.6667 47.9997 34.6667C51.6886 34.6667 54.833 35.9667 57.433 38.5667C60.033 41.1667 61.333 44.3112 61.333 48C61.333 51.6889 60.033 54.8334 57.433 57.4334C54.833 60.0334 51.6886 61.3334 47.9997 61.3334ZM10.6663 56C9.19967 56 7.94412 55.4778 6.89967 54.4334C5.85523 53.3889 5.33301 52.1334 5.33301 50.6667V21.3334C5.33301 19.8667 5.85523 18.6112 6.89967 17.5667C7.94412 16.5223 9.19967 16 10.6663 16H21.333V10.6667C21.333 9.20004 21.8552 7.94449 22.8997 6.90004C23.9441 5.8556 25.1997 5.33337 26.6663 5.33337H37.333C38.7997 5.33337 40.0552 5.8556 41.0997 6.90004C42.1441 7.94449 42.6663 9.20004 42.6663 10.6667V16H53.333C54.7997 16 56.0552 16.5223 57.0997 17.5667C58.1441 18.6112 58.6663 19.8667 58.6663 21.3334V32.7334C57.1108 31.6223 55.4219 30.7778 53.5997 30.2C51.7775 29.6223 49.9108 29.3334 47.9997 29.3334C42.8441 29.3334 38.4441 31.1556 34.7997 34.8C31.1552 38.4445 29.333 42.8445 29.333 48C29.333 49.3778 29.4775 50.7445 29.7663 52.1C30.0552 53.4556 30.5108 54.7556 31.133 56H10.6663Z" fill="#293041"/>
</g>
</svg>
