<svg width="65" height="64" viewBox="0 0 65 64" fill="none" xmlns="http://www.w3.org/2000/svg">
<mask id="mask0_4_163" style="mask-type:alpha" maskUnits="userSpaceOnUse" x="0" y="0" width="65" height="64">
<rect x="0.5" width="64" height="64" fill="#D9D9D9"/>
</mask>
<g mask="url(#mask0_4_163)">
<path d="M21.833 42.6666H35.1663V29.3333H21.833V42.6666ZM21.833 23.9999H53.833V10.6666H21.833V23.9999ZM40.4997 42.6666H53.833V29.3333H40.4997V42.6666ZM21.833 47.9999C20.3663 47.9999 19.1108 47.4777 18.0663 46.4333C17.0219 45.3888 16.4997 44.1333 16.4997 42.6666V10.6666C16.4997 9.19992 17.0219 7.94436 18.0663 6.89992C19.1108 5.85547 20.3663 5.33325 21.833 5.33325H53.833C55.2997 5.33325 56.5552 5.85547 57.5997 6.89992C58.6441 7.94436 59.1663 9.19992 59.1663 10.6666V42.6666C59.1663 44.1333 58.6441 45.3888 57.5997 46.4333C56.5552 47.4777 55.2997 47.9999 53.833 47.9999H21.833ZM11.1663 58.6666C9.69967 58.6666 8.44412 58.1444 7.39967 57.0999C6.35523 56.0555 5.83301 54.7999 5.83301 53.3332V15.9999H11.1663V53.3332H48.4997V58.6666H11.1663Z" fill="#293041"/>
</g>
</svg>
