<svg width="65" height="64" viewBox="0 0 65 64" fill="none" xmlns="http://www.w3.org/2000/svg">
<mask id="mask0_4_218" style="mask-type:alpha" maskUnits="userSpaceOnUse" x="0" y="0" width="65" height="64">
<rect x="0.5" width="64" height="64" fill="#D9D9D9"/>
</mask>
<g mask="url(#mask0_4_218)">
<path d="M16.5003 58.6666C15.0337 58.6666 13.7781 58.1444 12.7337 57.0999C11.6892 56.0555 11.167 54.7999 11.167 53.3332V45.3332H53.8337V53.3332C53.8337 54.7999 53.3114 56.0555 52.267 57.0999C51.2225 58.1444 49.967 58.6666 48.5003 58.6666H16.5003ZM35.167 23.9999H48.5003L35.167 10.6666V23.9999ZM24.5003 39.9999V34.6666H40.5003V39.9999H24.5003ZM45.8337 39.9999V34.6666H61.8337V39.9999H45.8337ZM3.16699 39.9999V34.6666H19.167V39.9999H3.16699ZM11.167 29.3333V10.6666C11.167 9.19992 11.6892 7.94436 12.7337 6.89992C13.7781 5.85547 15.0337 5.33325 16.5003 5.33325H37.8337L53.8337 21.3333V29.3333H11.167Z" fill="#293041"/>
</g>
</svg>
