<svg width="64" height="64" viewBox="0 0 64 64" fill="none" xmlns="http://www.w3.org/2000/svg">
<mask id="mask0_4_230" style="mask-type:alpha" maskUnits="userSpaceOnUse" x="0" y="0" width="64" height="64">
<rect width="64" height="64" fill="#D9D9D9"/>
</mask>
<g mask="url(#mask0_4_230)">
<path d="M50.4003 55.9999L35.8003 41.3999L41.4003 35.7999L56.0003 50.3999L50.4003 55.9999ZM13.6003 55.9999L8.00033 50.3999L26.4003 31.9999L21.867 27.4666L20.0003 29.3332L16.6003 25.9332V31.3999L14.7337 33.2666L6.66699 25.1999L8.53366 23.3332H14.0003L10.667 19.9999L20.1337 10.5332C21.0225 9.64434 21.9781 8.99989 23.0003 8.59989C24.0225 8.19989 25.067 7.99989 26.1337 7.99989C27.2003 7.99989 28.2448 8.19989 29.267 8.59989C30.2892 8.99989 31.2448 9.64434 32.1337 10.5332L26.0003 16.6666L29.3337 19.9999L27.467 21.8666L32.0003 26.3999L38.0003 20.3999C37.8225 19.911 37.6781 19.3999 37.567 18.8666C37.4559 18.3332 37.4003 17.7999 37.4003 17.2666C37.4003 14.6443 38.3003 12.4332 40.1003 10.6332C41.9003 8.83323 44.1114 7.93323 46.7337 7.93323C47.4003 7.93323 48.0337 7.99989 48.6337 8.13323C49.2337 8.26656 49.8448 8.46656 50.467 8.73323L43.867 15.3332L48.667 20.1332L55.267 13.5332C55.5781 14.1555 55.7892 14.7666 55.9003 15.3666C56.0114 15.9666 56.067 16.5999 56.067 17.2666C56.067 19.8888 55.167 22.0999 53.367 23.8999C51.567 25.6999 49.3559 26.5999 46.7337 26.5999C46.2003 26.5999 45.667 26.5555 45.1337 26.4666C44.6003 26.3777 44.0892 26.2221 43.6003 25.9999L13.6003 55.9999Z" fill="#293041"/>
</g>
</svg>
