<svg width="65" height="64" viewBox="0 0 65 64" fill="none" xmlns="http://www.w3.org/2000/svg">
<mask id="mask0_4_260" style="mask-type:alpha" maskUnits="userSpaceOnUse" x="0" y="0" width="65" height="64">
<rect x="0.5" width="64" height="64" fill="#D9D9D9"/>
</mask>
<g mask="url(#mask0_4_260)">
<path d="M24.5003 29.3333V21.3333H11.167C11.167 17.6444 12.467 14.5 15.067 11.9C17.667 9.3 20.8114 8 24.5003 8H40.5003V16L48.5003 8H53.8337V29.3333H48.5003L40.5003 21.3333V29.3333H24.5003ZM27.167 56C26.4114 56 25.7781 55.7444 25.267 55.2333C24.7559 54.7222 24.5003 54.0889 24.5003 53.3333V34.6667H40.5003V53.3333C40.5003 54.0889 40.2448 54.7222 39.7337 55.2333C39.2225 55.7444 38.5892 56 37.8337 56H27.167Z" fill="#293041"/>
</g>
</svg>
