<svg width="65" height="64" viewBox="0 0 65 64" fill="none" xmlns="http://www.w3.org/2000/svg">
<mask id="mask0_4_242" style="mask-type:alpha" maskUnits="userSpaceOnUse" x="0" y="0" width="65" height="64">
<rect x="0.5" width="64" height="64" fill="#D9D9D9"/>
</mask>
<g mask="url(#mask0_4_242)">
<path d="M13.633 50.8666C11.233 48.4666 9.33301 45.6443 7.93301 42.3999C6.53301 39.1555 5.83301 35.6888 5.83301 31.9999C5.83301 28.311 6.53301 24.8443 7.93301 21.5999C9.33301 18.3555 11.233 15.5332 13.633 13.1332L16.4997 15.9999C14.4108 18.0888 12.7775 20.4888 11.5997 23.1999C10.4219 25.911 9.83301 28.8443 9.83301 31.9999C9.83301 35.1555 10.4219 38.0888 11.5997 40.7999C12.7775 43.511 14.4108 45.911 16.4997 47.9999L13.633 50.8666ZM19.2997 45.1999C17.6108 43.511 16.2775 41.5332 15.2997 39.2666C14.3219 36.9999 13.833 34.5777 13.833 31.9999C13.833 29.4221 14.3219 26.9999 15.2997 24.7332C16.2775 22.4666 17.6108 20.4888 19.2997 18.7999L22.0997 21.5999C20.7663 22.9332 19.7219 24.4888 18.9663 26.2666C18.2108 28.0443 17.833 29.9555 17.833 31.9999C17.833 34.0443 18.2108 35.9555 18.9663 37.7332C19.7219 39.511 20.7663 41.0666 22.0997 42.3999L19.2997 45.1999ZM29.833 43.9999C29.833 42.9777 29.4886 41.9666 28.7997 40.9666C28.1108 39.9666 27.3441 38.9221 26.4997 37.8332C25.6552 36.7443 24.8886 35.611 24.1997 34.4332C23.5108 33.2555 23.1663 31.9999 23.1663 30.6666C23.1663 28.0888 24.0775 25.8888 25.8997 24.0666C27.7219 22.2443 29.9219 21.3332 32.4997 21.3332C35.0774 21.3332 37.2775 22.2443 39.0997 24.0666C40.9219 25.8888 41.833 28.0888 41.833 30.6666C41.833 31.9999 41.4886 33.2555 40.7997 34.4332C40.1108 35.611 39.3441 36.7443 38.4997 37.8332C37.6552 38.9221 36.8886 39.9666 36.1997 40.9666C35.5108 41.9666 35.1663 42.9777 35.1663 43.9999H29.833ZM29.833 50.6666V46.6666H35.1663V50.6666H29.833ZM45.6997 45.1999L42.8997 42.3999C44.233 41.0666 45.2775 39.511 46.033 37.7332C46.7886 35.9555 47.1663 34.0443 47.1663 31.9999C47.1663 29.9555 46.7886 28.0443 46.033 26.2666C45.2775 24.4888 44.233 22.9332 42.8997 21.5999L45.6997 18.7999C47.3886 20.4888 48.7219 22.4666 49.6997 24.7332C50.6775 26.9999 51.1663 29.4221 51.1663 31.9999C51.1663 34.5777 50.6775 36.9999 49.6997 39.2666C48.7219 41.5332 47.3886 43.511 45.6997 45.1999ZM51.3663 50.8666L48.4997 47.9999C50.5886 45.911 52.2219 43.511 53.3997 40.7999C54.5774 38.0888 55.1663 35.1555 55.1663 31.9999C55.1663 28.8443 54.5774 25.911 53.3997 23.1999C52.2219 20.4888 50.5886 18.0888 48.4997 15.9999L51.3663 13.1332C53.7663 15.5332 55.6663 18.3555 57.0663 21.5999C58.4663 24.8443 59.1663 28.311 59.1663 31.9999C59.1663 35.6888 58.4663 39.1555 57.0663 42.3999C55.6663 45.6443 53.7663 48.4666 51.3663 50.8666Z" fill="#293041"/>
</g>
</svg>
