<svg width="64" height="64" viewBox="0 0 64 64" fill="none" xmlns="http://www.w3.org/2000/svg">
<mask id="mask0_4_151" style="mask-type:alpha" maskUnits="userSpaceOnUse" x="0" y="0" width="64" height="64">
<rect width="64" height="64" fill="#D9D9D9"/>
</mask>
<g mask="url(#mask0_4_151)">
<path d="M7.99967 61.3333L15.4663 23.7333L10.6663 25.6V34.6667H5.33301V22.1333L18.7997 16.4C20.0886 15.8667 21.3997 15.8111 22.733 16.2333C24.0663 16.6556 25.1108 17.4667 25.8663 18.6667L28.533 22.9333C29.733 24.8444 31.3219 26.3889 33.2997 27.5667C35.2775 28.7444 37.5108 29.3333 39.9997 29.3333V34.6667C37.0663 34.6667 34.3219 34.0556 31.7663 32.8333C29.2108 31.6111 27.0663 30 25.333 28L23.733 36L29.333 41.3333V61.3333H23.9997V45.3333L18.3997 40L13.5997 61.3333H7.99967ZM25.333 14.6667C23.8663 14.6667 22.6108 14.1444 21.5663 13.1C20.5219 12.0556 19.9997 10.8 19.9997 9.33333C19.9997 7.86667 20.5219 6.61111 21.5663 5.56667C22.6108 4.52222 23.8663 4 25.333 4C26.7997 4 28.0552 4.52222 29.0997 5.56667C30.1441 6.61111 30.6663 7.86667 30.6663 9.33333C30.6663 10.8 30.1441 12.0556 29.0997 13.1C28.0552 14.1444 26.7997 14.6667 25.333 14.6667ZM51.9997 61.3333L49.1997 58.5333L51.0663 56.6667H37.333V52.6667H51.0663L49.1997 50.8L51.9997 48L58.6663 54.6667L51.9997 61.3333ZM43.9997 50L37.333 43.3333L43.9997 36.6667L46.7997 39.4667L44.933 41.3333H58.6663V45.3333H44.933L46.7997 47.2L43.9997 50Z" fill="#293041"/>
</g>
</svg>
