<svg width="64" height="64" viewBox="0 0 64 64" fill="none" xmlns="http://www.w3.org/2000/svg">
<mask id="mask0_4_224" style="mask-type:alpha" maskUnits="userSpaceOnUse" x="0" y="0" width="64" height="64">
<rect width="64" height="64" fill="#D9D9D9"/>
</mask>
<g mask="url(#mask0_4_224)">
<path d="M32.7337 50.6666C33.267 50.6221 33.7225 50.411 34.1003 50.0333C34.4781 49.6555 34.667 49.1999 34.667 48.6666C34.667 48.0444 34.467 47.5444 34.067 47.1666C33.667 46.7888 33.1559 46.6221 32.5337 46.6666C30.7114 46.7999 28.7781 46.2999 26.7337 45.1666C24.6892 44.0332 23.4003 41.9777 22.867 38.9999C22.7781 38.511 22.5448 38.111 22.167 37.7999C21.7892 37.4888 21.3559 37.3333 20.867 37.3333C20.2448 37.3333 19.7337 37.5666 19.3337 38.0332C18.9337 38.4999 18.8003 39.0444 18.9337 39.6666C19.6892 43.711 21.467 46.5999 24.267 48.3332C27.067 50.0666 29.8892 50.8444 32.7337 50.6666ZM32.0003 58.6666C25.9114 58.6666 20.8337 56.5777 16.767 52.3999C12.7003 48.2221 10.667 43.0221 10.667 36.7999C10.667 32.3555 12.4337 27.5221 15.967 22.2999C19.5003 17.0777 24.8448 11.4221 32.0003 5.33325C39.1559 11.4221 44.5003 17.0777 48.0337 22.2999C51.567 27.5221 53.3337 32.3555 53.3337 36.7999C53.3337 43.0221 51.3003 48.2221 47.2337 52.3999C43.167 56.5777 38.0892 58.6666 32.0003 58.6666Z" fill="#293041"/>
</g>
</svg>
