<svg width="64" height="64" viewBox="0 0 64 64" fill="none" xmlns="http://www.w3.org/2000/svg">
<mask id="mask0_4_212" style="mask-type:alpha" maskUnits="userSpaceOnUse" x="0" y="0" width="64" height="64">
<rect width="64" height="64" fill="#D9D9D9"/>
</mask>
<g mask="url(#mask0_4_212)">
<path d="M18.6663 53.3334H10.6663C9.19967 53.3334 7.94412 52.8112 6.89967 51.7668C5.85523 50.7223 5.33301 49.4668 5.33301 48.0001V16.0001C5.33301 14.5334 5.85523 13.2779 6.89967 12.2334C7.94412 11.189 9.19967 10.6667 10.6663 10.6667H53.333V16.0001H10.6663V48.0001H18.6663V53.3334ZM29.333 46.6667C30.4441 46.6667 31.3886 46.2779 32.1663 45.5001C32.9441 44.7223 33.333 43.7779 33.333 42.6667C33.333 41.5556 32.9441 40.6112 32.1663 39.8334C31.3886 39.0556 30.4441 38.6667 29.333 38.6667C28.2219 38.6667 27.2775 39.0556 26.4997 39.8334C25.7219 40.6112 25.333 41.5556 25.333 42.6667C25.333 43.7779 25.7219 44.7223 26.4997 45.5001C27.2775 46.2779 28.2219 46.6667 29.333 46.6667ZM23.9997 53.3334V48.6001C23.1552 47.8445 22.4997 46.9556 22.033 45.9334C21.5663 44.9112 21.333 43.8223 21.333 42.6667C21.333 41.5112 21.5663 40.4223 22.033 39.4001C22.4997 38.3779 23.1552 37.489 23.9997 36.7334V32.0001H34.6663V36.7334C35.5108 37.489 36.1663 38.3779 36.633 39.4001C37.0997 40.4223 37.333 41.5112 37.333 42.6667C37.333 43.8223 37.0997 44.9112 36.633 45.9334C36.1663 46.9556 35.5108 47.8445 34.6663 48.6001V53.3334H23.9997ZM55.9997 53.3334H42.6663C41.9108 53.3334 41.2775 53.0779 40.7663 52.5667C40.2552 52.0556 39.9997 51.4223 39.9997 50.6667V26.6667C39.9997 25.9112 40.2552 25.2779 40.7663 24.7667C41.2775 24.2556 41.9108 24.0001 42.6663 24.0001H55.9997C56.7552 24.0001 57.3886 24.2556 57.8997 24.7667C58.4108 25.2779 58.6663 25.9112 58.6663 26.6667V50.6667C58.6663 51.4223 58.4108 52.0556 57.8997 52.5667C57.3886 53.0779 56.7552 53.3334 55.9997 53.3334ZM45.333 48.0001H53.333V29.3334H45.333V48.0001Z" fill="#293041"/>
</g>
</svg>
