<svg width="65" height="64" viewBox="0 0 65 64" fill="none" xmlns="http://www.w3.org/2000/svg">
<mask id="mask0_4_133" style="mask-type:alpha" maskUnits="userSpaceOnUse" x="0" y="0" width="65" height="64">
<rect x="0.5" width="64" height="64" fill="#D9D9D9"/>
</mask>
<g mask="url(#mask0_4_133)">
<path d="M19.1663 55.9999C15.4775 55.9999 12.333 54.6999 9.73301 52.0999C7.13301 49.4999 5.83301 46.3555 5.83301 42.6666C5.83301 39.4221 6.84412 36.5888 8.86634 34.1666C10.8886 31.7443 13.433 30.2221 16.4997 29.5999V35.1332C14.9441 35.6666 13.6663 36.6221 12.6663 37.9999C11.6663 39.3777 11.1663 40.9332 11.1663 42.6666C11.1663 44.8888 11.9441 46.7777 13.4997 48.3332C15.0552 49.8888 16.9441 50.6666 19.1663 50.6666C21.3886 50.6666 23.2775 49.8888 24.833 48.3332C26.3886 46.7777 27.1663 44.8888 27.1663 42.6666V39.9999H42.833C43.1886 39.5999 43.6219 39.2777 44.133 39.0332C44.6441 38.7888 45.2108 38.6666 45.833 38.6666C46.9441 38.6666 47.8886 39.0555 48.6663 39.8332C49.4441 40.611 49.833 41.5555 49.833 42.6666C49.833 43.7777 49.4441 44.7221 48.6663 45.4999C47.8886 46.2777 46.9441 46.6666 45.833 46.6666C45.2108 46.6666 44.6441 46.5443 44.133 46.2999C43.6219 46.0555 43.1886 45.7332 42.833 45.3332H32.233C31.6108 48.3999 30.0886 50.9444 27.6663 52.9666C25.2441 54.9888 22.4108 55.9999 19.1663 55.9999ZM45.833 55.9999C43.3441 55.9999 41.0886 55.3888 39.0663 54.1666C37.0441 52.9443 35.4552 51.3332 34.2997 49.3332H41.433C42.0552 49.7777 42.7441 50.111 43.4997 50.3332C44.2552 50.5555 45.033 50.6666 45.833 50.6666C48.0552 50.6666 49.9441 49.8888 51.4997 48.3332C53.0552 46.7777 53.833 44.8888 53.833 42.6666C53.833 40.4443 53.0552 38.5555 51.4997 36.9999C49.9441 35.4443 48.0552 34.6666 45.833 34.6666C44.9441 34.6666 44.1219 34.7888 43.3663 35.0332C42.6108 35.2777 41.8997 35.6444 41.233 36.1332L33.0997 22.5999C32.1663 22.4221 31.3886 21.9777 30.7663 21.2666C30.1441 20.5555 29.833 19.6888 29.833 18.6666C29.833 17.5555 30.2219 16.611 30.9997 15.8332C31.7775 15.0555 32.7219 14.6666 33.833 14.6666C34.9441 14.6666 35.8886 15.0555 36.6663 15.8332C37.4441 16.611 37.833 17.5555 37.833 18.6666V19.2332C37.833 19.3888 37.7886 19.5777 37.6997 19.7999L43.4997 29.5332C43.8552 29.4443 44.233 29.3888 44.633 29.3666C45.033 29.3443 45.433 29.3332 45.833 29.3332C49.5219 29.3332 52.6663 30.6332 55.2663 33.2332C57.8663 35.8332 59.1663 38.9777 59.1663 42.6666C59.1663 46.3555 57.8663 49.4999 55.2663 52.0999C52.6663 54.6999 49.5219 55.9999 45.833 55.9999ZM19.1663 46.6666C18.0552 46.6666 17.1108 46.2777 16.333 45.4999C15.5552 44.7221 15.1663 43.7777 15.1663 42.6666C15.1663 41.6888 15.4775 40.8443 16.0997 40.1332C16.7219 39.4221 17.4775 38.9555 18.3663 38.7332L24.633 28.3332C23.3441 27.1332 22.333 25.6999 21.5997 24.0332C20.8663 22.3666 20.4997 20.5777 20.4997 18.6666C20.4997 14.9777 21.7997 11.8332 24.3997 9.23324C26.9997 6.63324 30.1441 5.33324 33.833 5.33324C37.5219 5.33324 40.6663 6.63324 43.2663 9.23324C45.8663 11.8332 47.1663 14.9777 47.1663 18.6666H41.833C41.833 16.4443 41.0552 14.5555 39.4997 12.9999C37.9441 11.4443 36.0552 10.6666 33.833 10.6666C31.6108 10.6666 29.7219 11.4443 28.1663 12.9999C26.6108 14.5555 25.833 16.4443 25.833 18.6666C25.833 20.5777 26.4108 22.2555 27.5663 23.6999C28.7219 25.1444 30.1886 26.0666 31.9663 26.4666L22.9663 41.4666C23.0552 41.6888 23.1108 41.8888 23.133 42.0666C23.1552 42.2444 23.1663 42.4443 23.1663 42.6666C23.1663 43.7777 22.7775 44.7221 21.9997 45.4999C21.2219 46.2777 20.2775 46.6666 19.1663 46.6666Z" fill="#293041"/>
</g>
</svg>
