<svg width="64" height="64" viewBox="0 0 64 64" fill="none" xmlns="http://www.w3.org/2000/svg">
<mask id="mask0_4_248" style="mask-type:alpha" maskUnits="userSpaceOnUse" x="0" y="0" width="64" height="64">
<rect width="64" height="64" fill="#D9D9D9"/>
</mask>
<g mask="url(#mask0_4_248)">
<path d="M15.5333 58.6666L19.1333 50.5333C18.5111 50.0444 17.9111 49.5666 17.3333 49.0999C16.7555 48.6333 16.2 48.1333 15.6666 47.5999C15.3111 47.7332 14.9666 47.8333 14.6333 47.8999C14.3 47.9666 13.9333 47.9999 13.5333 47.9999C12.0666 47.9999 10.8111 47.4777 9.76662 46.4333C8.72217 45.3888 8.19995 44.1333 8.19995 42.6666C8.19995 41.7777 8.38884 40.9666 8.76662 40.2332C9.1444 39.4999 9.66662 38.8888 10.3333 38.3999C9.97773 37.3777 9.73328 36.3444 9.59995 35.2999C9.46662 34.2555 9.39995 33.1555 9.39995 31.9999C9.39995 30.8444 9.46662 29.7444 9.59995 28.6999C9.73328 27.6555 9.97773 26.6221 10.3333 25.5999C9.66662 25.111 9.1444 24.4999 8.76662 23.7666C8.38884 23.0333 8.19995 22.2221 8.19995 21.3333C8.19995 19.8666 8.72217 18.611 9.76662 17.5666C10.8111 16.5221 12.0666 15.9999 13.5333 15.9999C13.9333 15.9999 14.3 16.0333 14.6333 16.0999C14.9666 16.1666 15.3111 16.2666 15.6666 16.3999C17.1333 14.7999 18.8111 13.4666 20.7 12.3999C22.5888 11.3333 24.6 10.5333 26.7333 9.99992C26.9555 8.66658 27.5666 7.55547 28.5666 6.66659C29.5666 5.7777 30.7333 5.33325 32.0666 5.33325C33.4 5.33325 34.5666 5.78881 35.5666 6.69992C36.5666 7.61103 37.1777 8.71103 37.4 9.99992C39.5333 10.5333 41.5444 11.3221 43.4333 12.3666C45.3222 13.411 47 14.711 48.4666 16.2666C48.8222 16.1333 49.1555 16.0333 49.4666 15.9666C49.7777 15.8999 50.1111 15.8666 50.4666 15.8666C51.9333 15.8666 53.1888 16.3888 54.2333 17.4333C55.2777 18.4777 55.8 19.7333 55.8 21.1999C55.8 22.0888 55.6222 22.8777 55.2666 23.5666C54.9111 24.2555 54.4222 24.8444 53.8 25.3333C54.1555 26.3999 54.4 27.4888 54.5333 28.5999C54.6666 29.711 54.7333 30.8444 54.7333 31.9999C54.7333 33.1555 54.6666 34.2777 54.5333 35.3666C54.4 36.4555 54.1555 37.511 53.8 38.5332C54.4222 39.0221 54.9111 39.611 55.2666 40.2999C55.6222 40.9888 55.8 41.7777 55.8 42.6666C55.8 44.1333 55.2777 45.3888 54.2333 46.4333C53.1888 47.4777 51.9333 47.9999 50.4666 47.9999C50.1111 47.9999 49.7777 47.9666 49.4666 47.8999C49.1555 47.8333 48.8222 47.7332 48.4666 47.5999C47.9333 48.1333 47.3888 48.6555 46.8333 49.1666C46.2777 49.6777 45.6666 50.1777 45 50.6666L48.4666 58.6666H43.5333L41 52.7999C40.3777 53.0666 39.7777 53.2999 39.2 53.4999C38.6222 53.6999 38.0222 53.8666 37.4 53.9999C37.1777 55.2888 36.5666 56.3888 35.5666 57.2999C34.5666 58.211 33.4 58.6666 32.0666 58.6666C30.7333 58.6666 29.5666 58.2221 28.5666 57.3332C27.5666 56.4444 26.9555 55.3332 26.7333 53.9999C26.0666 53.8666 25.4333 53.6999 24.8333 53.4999C24.2333 53.2999 23.6222 53.0666 23 52.7999L20.4666 58.6666H15.5333ZM20.6 47.0666L24.7333 37.7332C24.1111 36.9333 23.6222 36.0444 23.2666 35.0666C22.9111 34.0888 22.7333 33.0666 22.7333 31.9999C22.7333 29.4666 23.6555 27.2777 25.5 25.4333C27.3444 23.5888 29.5333 22.6666 32.0666 22.6666C34.6 22.6666 36.7888 23.5888 38.6333 25.4333C40.4777 27.2777 41.4 29.4666 41.4 31.9999C41.4 33.0666 41.2111 34.111 40.8333 35.1333C40.4555 36.1555 39.9333 37.0666 39.2666 37.8666L43.4 47.0666C43.8 46.711 44.1888 46.3888 44.5666 46.0999C44.9444 45.811 45.3111 45.4666 45.6666 45.0666C45.4444 44.711 45.3 44.3221 45.2333 43.8999C45.1666 43.4777 45.1333 43.0666 45.1333 42.6666C45.1333 41.2444 45.6222 40.0221 46.6 38.9999C47.5777 37.9777 48.7777 37.4221 50.2 37.3333C50.4666 36.4444 50.6666 35.5666 50.8 34.6999C50.9333 33.8333 51 32.9333 51 31.9999C51 31.0666 50.9333 30.1444 50.8 29.2333C50.6666 28.3221 50.4666 27.4221 50.2 26.5333C48.7777 26.4444 47.5777 25.8888 46.6 24.8666C45.6222 23.8444 45.1333 22.6221 45.1333 21.1999C45.1333 20.7999 45.1888 20.411 45.3 20.0333C45.4111 19.6555 45.5333 19.2888 45.6666 18.9333C44.3777 17.6444 42.9555 16.5555 41.4 15.6666C39.8444 14.7777 38.2 14.0888 36.4666 13.5999C35.9777 14.3555 35.3555 14.9444 34.6 15.3666C33.8444 15.7888 33 15.9999 32.0666 15.9999C31.1333 15.9999 30.2888 15.7888 29.5333 15.3666C28.7777 14.9444 28.1555 14.3555 27.6666 13.5999C25.8444 14.0888 24.1555 14.7888 22.6 15.6999C21.0444 16.611 19.6222 17.7333 18.3333 19.0666C18.4666 19.4221 18.5888 19.7888 18.7 20.1666C18.8111 20.5444 18.8666 20.9333 18.8666 21.3333C18.8666 22.7555 18.4 23.9666 17.4666 24.9666C16.5333 25.9666 15.3555 26.5333 13.9333 26.6666C13.6666 27.5555 13.4666 28.4333 13.3333 29.2999C13.2 30.1666 13.1333 31.0666 13.1333 31.9999C13.1333 32.9333 13.2 33.8333 13.3333 34.6999C13.4666 35.5666 13.6666 36.4444 13.9333 37.3333C15.3555 37.4221 16.5333 37.9777 17.4666 38.9999C18.4 40.0221 18.8666 41.2444 18.8666 42.6666C18.8666 43.0666 18.8333 43.4555 18.7666 43.8332C18.7 44.211 18.5555 44.5777 18.3333 44.9333C18.6888 45.3333 19.0555 45.6999 19.4333 46.0332C19.8111 46.3666 20.2 46.711 20.6 47.0666ZM24.6 49.3332C25.0888 49.5555 25.5888 49.7555 26.1 49.9333C26.6111 50.111 27.1333 50.2666 27.6666 50.3999C28.1555 49.6444 28.7777 49.0555 29.5333 48.6333C30.2888 48.211 31.1333 47.9999 32.0666 47.9999C33 47.9999 33.8444 48.211 34.6 48.6333C35.3555 49.0555 35.9777 49.6444 36.4666 50.3999C37 50.2666 37.5 50.111 37.9666 49.9333C38.4333 49.7555 38.9111 49.5555 39.4 49.3332L35.5333 40.6666C35 40.8888 34.4444 41.0555 33.8666 41.1666C33.2888 41.2777 32.6888 41.3332 32.0666 41.3332C31.4 41.3332 30.7666 41.2666 30.1666 41.1333C29.5666 40.9999 29 40.7999 28.4666 40.5332L24.6 49.3332Z" fill="#293041"/>
</g>
</svg>
