<svg width="64" height="64" viewBox="0 0 64 64" fill="none" xmlns="http://www.w3.org/2000/svg">
<mask id="mask0_4_145" style="mask-type:alpha" maskUnits="userSpaceOnUse" x="0" y="0" width="64" height="64">
<rect width="64" height="64" fill="white"/>
</mask>
<g mask="url(#mask0_4_145)">
<path d="M2.80005 56V48.5333C2.80005 47.0667 3.17783 45.6889 3.93338 44.4C4.68894 43.1111 5.73338 42.1333 7.06672 41.4667C9.33338 40.3111 11.8889 39.3333 14.7334 38.5333C17.5778 37.7333 20.7112 37.3333 24.1334 37.3333C27.5556 37.3333 30.6889 37.7333 33.5334 38.5333C36.3778 39.3333 38.9334 40.3111 41.2 41.4667C42.5334 42.1333 43.5778 43.1111 44.3334 44.4C45.0889 45.6889 45.4667 47.0667 45.4667 48.5333V56H2.80005ZM8.13338 50.6667H40.1334V48.5333C40.1334 48.0444 40.0112 47.6 39.7667 47.2C39.5223 46.8 39.2 46.4889 38.8 46.2667C37.2 45.4667 35.1445 44.6667 32.6334 43.8667C30.1223 43.0667 27.2889 42.6667 24.1334 42.6667C20.9778 42.6667 18.1445 43.0667 15.6334 43.8667C13.1223 44.6667 11.0667 45.4667 9.46671 46.2667C9.06672 46.4889 8.74449 46.8 8.50005 47.2C8.2556 47.6 8.13338 48.0444 8.13338 48.5333V50.6667ZM24.1334 34.6667C21.2 34.6667 18.6889 33.6222 16.6 31.5333C14.5112 29.4444 13.4667 26.9333 13.4667 24H12.8C12.4 24 12.0778 23.8778 11.8334 23.6333C11.5889 23.3889 11.4667 23.0667 11.4667 22.6667C11.4667 22.2667 11.5889 21.9444 11.8334 21.7C12.0778 21.4556 12.4 21.3333 12.8 21.3333H13.4667C13.4667 19.3333 13.9556 17.5333 14.9334 15.9333C15.9112 14.3333 17.2 13.0667 18.8 12.1333V14.6667C18.8 15.0667 18.9223 15.3889 19.1667 15.6333C19.4112 15.8778 19.7334 16 20.1334 16C20.5334 16 20.8556 15.8778 21.1 15.6333C21.3445 15.3889 21.4667 15.0667 21.4667 14.6667V11.0667C21.8667 10.9333 22.2889 10.8333 22.7334 10.7667C23.1778 10.7 23.6445 10.6667 24.1334 10.6667C24.6223 10.6667 25.0889 10.7 25.5334 10.7667C25.9778 10.8333 26.4 10.9333 26.8 11.0667V14.6667C26.8 15.0667 26.9223 15.3889 27.1667 15.6333C27.4112 15.8778 27.7334 16 28.1334 16C28.5334 16 28.8556 15.8778 29.1 15.6333C29.3445 15.3889 29.4667 15.0667 29.4667 14.6667V12.1333C31.0667 13.0667 32.3556 14.3333 33.3334 15.9333C34.3112 17.5333 34.8 19.3333 34.8 21.3333H35.4667C35.8667 21.3333 36.1889 21.4556 36.4334 21.7C36.6778 21.9444 36.8 22.2667 36.8 22.6667C36.8 23.0667 36.6778 23.3889 36.4334 23.6333C36.1889 23.8778 35.8667 24 35.4667 24H34.8C34.8 26.9333 33.7556 29.4444 31.6667 31.5333C29.5778 33.6222 27.0667 34.6667 24.1334 34.6667ZM24.1334 29.3333C25.6 29.3333 26.8556 28.8111 27.9 27.7667C28.9445 26.7222 29.4667 25.4667 29.4667 24H18.8C18.8 25.4667 19.3223 26.7222 20.3667 27.7667C21.4112 28.8111 22.6667 29.3333 24.1334 29.3333ZM44.1334 40L43.7334 38C43.4667 37.9111 43.2112 37.8111 42.9667 37.7C42.7223 37.5889 42.4889 37.4222 42.2667 37.2L40.4 37.8667L39.0667 35.4667L40.5334 34.1333V32.5333L39.0667 31.2L40.4 28.8L42.2667 29.4667C42.4445 29.2889 42.6667 29.1333 42.9334 29C43.2 28.8667 43.4667 28.7556 43.7334 28.6667L44.1334 26.6667H46.8L47.2 28.6667C47.4667 28.7556 47.7334 28.8667 48 29C48.2667 29.1333 48.4889 29.2889 48.6667 29.4667L50.5334 28.8L51.8667 31.2L50.4 32.5333V34.1333L51.8667 35.4667L50.5334 37.8667L48.6667 37.2C48.4445 37.4222 48.2112 37.5889 47.9667 37.7C47.7223 37.8111 47.4667 37.9111 47.2 38L46.8 40H44.1334ZM45.4667 35.3333C46 35.3333 46.4667 35.1333 46.8667 34.7333C47.2667 34.3333 47.4667 33.8667 47.4667 33.3333C47.4667 32.8 47.2667 32.3333 46.8667 31.9333C46.4667 31.5333 46 31.3333 45.4667 31.3333C44.9334 31.3333 44.4667 31.5333 44.0667 31.9333C43.6667 32.3333 43.4667 32.8 43.4667 33.3333C43.4667 33.8667 43.6667 34.3333 44.0667 34.7333C44.4667 35.1333 44.9334 35.3333 45.4667 35.3333ZM50.2667 26.6667L49.7334 23.8667C49.3334 23.7333 48.9667 23.5667 48.6334 23.3667C48.3 23.1667 48 22.9333 47.7334 22.6667L44.9334 23.6L43.0667 20.4L45.3334 18.4C45.2445 18.1778 45.2 18 45.2 17.8667V16.8C45.2 16.6667 45.2445 16.4889 45.3334 16.2667L43.0667 14.2667L44.9334 11.0667L47.7334 12C48 11.7333 48.3 11.5 48.6334 11.3C48.9667 11.1 49.3334 10.9333 49.7334 10.8L50.2667 8H54L54.5334 10.8C54.9334 10.9333 55.3 11.1 55.6334 11.3C55.9667 11.5 56.2667 11.7333 56.5334 12L59.3334 11.0667L61.2 14.2667L58.9334 16.2667C59.0223 16.4889 59.0667 16.6667 59.0667 16.8V17.8667C59.0667 18 59.0223 18.1778 58.9334 18.4L61.2 20.4L59.3334 23.6L56.5334 22.6667C56.2667 22.9333 55.9667 23.1667 55.6334 23.3667C55.3 23.5667 54.9334 23.7333 54.5334 23.8667L54 26.6667H50.2667ZM52.1334 20.6667C53.0667 20.6667 53.8556 20.3444 54.5 19.7C55.1445 19.0556 55.4667 18.2667 55.4667 17.3333C55.4667 16.4 55.1445 15.6111 54.5 14.9667C53.8556 14.3222 53.0667 14 52.1334 14C51.2 14 50.4112 14.3222 49.7667 14.9667C49.1223 15.6111 48.8 16.4 48.8 17.3333C48.8 18.2667 49.1223 19.0556 49.7667 19.7C50.4112 20.3444 51.2 20.6667 52.1334 20.6667Z" fill="#293041"/>
</g>
</svg>
