<svg width="110" height="56" viewBox="0 0 110 56" fill="none" xmlns="http://www.w3.org/2000/svg">
<mask id="mask0_2_44" style="mask-type:alpha" maskUnits="userSpaceOnUse" x="0" y="0" width="56" height="56">
<rect width="56" height="56" fill="#D9D9D9"/>
</mask>
<g mask="url(#mask0_2_44)">
<path d="M7.70001 46.6667C6.76668 46.6667 5.95001 46.3167 5.25001 45.6167C4.55001 44.9167 4.20001 44.1 4.20001 43.1667V12.8333C4.20001 11.9 4.55001 11.0833 5.25001 10.3833C5.95001 9.68333 6.76668 9.33333 7.70001 9.33333H48.3C49.2333 9.33333 50.05 9.68333 50.75 10.3833C51.45 11.0833 51.8 11.9 51.8 12.8333H33.8333C31.85 12.8333 30.1875 13.5139 28.8458 14.875C27.5042 16.2361 26.8333 17.8889 26.8333 19.8333V21H14V24.5H26.8333V31.5H14V35H27.0083C27.4361 37.6833 28.4472 40.0458 30.0417 42.0875C31.6361 44.1292 33.6583 45.6556 36.1083 46.6667H7.70001ZM43.75 51.3333C42.7875 51.3333 41.9636 50.9906 41.2781 50.3052C40.5927 49.6198 40.25 48.7958 40.25 47.8333V44.2167C37.4111 43.7889 35.0486 42.4958 33.1625 40.3375C31.2764 38.1792 30.3333 35.6222 30.3333 32.6667V19.8333C30.3333 18.8708 30.6688 18.0469 31.3396 17.3615C32.0104 16.676 32.8417 16.3333 33.8333 16.3333H50.1667C51.1292 16.3333 51.9531 16.676 52.6386 17.3615C53.324 18.0469 53.6667 18.8708 53.6667 19.8333V32.6667C53.6667 35.6222 52.7139 38.1792 50.8083 40.3375C48.9028 42.4958 46.55 43.7889 43.75 44.2167V47.8333H51.3333V51.3333H43.75ZM46.0833 30.9167H50.4583V19.5417H33.5417V26.25H36.75C37.9357 26.25 39.0585 26.5222 40.1185 27.0667C41.1784 27.6111 42.0778 28.35 42.8167 29.2833C43.2056 29.8278 43.682 30.2361 44.2458 30.5083C44.8097 30.7806 45.4222 30.9167 46.0833 30.9167Z" fill="url(#paint0_linear_2_44)"/>
</g>
<path d="M61.2954 21.1538C60.5776 21.1538 59.9233 21.0195 59.3325 20.751C58.7417 20.4824 58.2314 20.1064 57.8018 19.623C57.377 19.1348 57.0498 18.5635 56.8203 17.9092C56.5908 17.25 56.4761 16.5298 56.4761 15.7485V15.5874C56.4761 14.811 56.5908 14.0957 56.8203 13.4414C57.0498 12.7822 57.377 12.2085 57.8018 11.7202C58.2266 11.2319 58.7344 10.8535 59.3252 10.585C59.916 10.3164 60.5703 10.1821 61.2881 10.1821C62.0107 10.1821 62.6699 10.3164 63.2656 10.585C63.8613 10.8535 64.374 11.2319 64.8037 11.7202C65.2334 12.2085 65.563 12.7822 65.7925 13.4414C66.0269 14.0957 66.144 14.811 66.144 15.5874V15.7485C66.144 16.5298 66.0269 17.25 65.7925 17.9092C65.563 18.5635 65.2334 19.1348 64.8037 19.623C64.374 20.1064 63.8613 20.4824 63.2656 20.751C62.6748 21.0195 62.0181 21.1538 61.2954 21.1538ZM61.2954 19.4912C61.9009 19.4912 62.4038 19.335 62.8042 19.0225C63.2046 18.71 63.5049 18.2729 63.7051 17.7114C63.9102 17.1499 64.0127 16.4956 64.0127 15.7485V15.5728C64.0127 14.8354 63.9102 14.1885 63.7051 13.6318C63.5 13.0703 63.1948 12.6333 62.7896 12.3208C62.3892 12.0083 61.8887 11.8521 61.2881 11.8521C60.6924 11.8521 60.1968 12.0083 59.8013 12.3208C59.4058 12.6284 59.1079 13.0605 58.9077 13.6172C58.7124 14.1738 58.6147 14.8257 58.6147 15.5728V15.7485C58.6147 16.4956 58.7124 17.1499 58.9077 17.7114C59.1079 18.2729 59.4058 18.71 59.8013 19.0225C60.2017 19.335 60.6997 19.4912 61.2954 19.4912ZM66.9717 21V19.7183L67.9971 19.4985V14.584L66.8618 14.3643V13.0752H69.9893L70.0845 14.2104C70.3481 13.8052 70.6729 13.4902 71.0586 13.2656C71.4492 13.041 71.8936 12.9287 72.3916 12.9287C73.1777 12.9287 73.793 13.1802 74.2373 13.6831C74.6816 14.186 74.9038 14.9746 74.9038 16.0488V19.4985L75.9292 19.7183V21H71.8423V19.7183L72.7578 19.4985V16.0562C72.7578 15.5239 72.6528 15.1479 72.4429 14.9282C72.2329 14.7036 71.9204 14.5913 71.5054 14.5913C71.1978 14.5913 70.9292 14.6572 70.6997 14.7891C70.4751 14.916 70.2871 15.0991 70.1357 15.3384V19.4985L71 19.7183V21H66.9717ZM76.5151 21V19.7183L77.5479 19.4985V11.083L76.4053 10.8633V9.57422H79.6865V19.4985L80.7192 19.7183V21H76.5151ZM81.3564 21V19.7183L82.3892 19.4985V14.584L81.2466 14.3643V13.0752H84.5278V19.4985L85.5532 19.7183V21H81.3564ZM82.3159 11.3979V9.57422H84.5278V11.3979H82.3159ZM86.1904 21V19.7183L87.2158 19.4985V14.584L86.0806 14.3643V13.0752H89.208L89.3032 14.2104C89.5669 13.8052 89.8916 13.4902 90.2773 13.2656C90.668 13.041 91.1123 12.9287 91.6104 12.9287C92.3965 12.9287 93.0117 13.1802 93.4561 13.6831C93.9004 14.186 94.1226 14.9746 94.1226 16.0488V19.4985L95.1479 19.7183V21H91.061V19.7183L91.9766 19.4985V16.0562C91.9766 15.5239 91.8716 15.1479 91.6616 14.9282C91.4517 14.7036 91.1392 14.5913 90.7241 14.5913C90.4165 14.5913 90.1479 14.6572 89.9185 14.7891C89.6938 14.916 89.5059 15.0991 89.3545 15.3384V19.4985L90.2188 19.7183V21H86.1904ZM99.5571 21.1538C98.8003 21.1538 98.1387 20.9878 97.5723 20.6558C97.0059 20.3188 96.5664 19.8574 96.2539 19.2715C95.9463 18.6855 95.7925 18.0166 95.7925 17.2646V16.9717C95.7925 16.1855 95.939 15.4897 96.2319 14.8843C96.5249 14.2739 96.9375 13.7954 97.4697 13.4487C98.0068 13.0972 98.6392 12.9238 99.3667 12.9287C100.084 12.9287 100.688 13.0703 101.176 13.3535C101.664 13.6367 102.035 14.0444 102.289 14.5767C102.543 15.1089 102.67 15.7534 102.67 16.5103V17.6748H98.0117L97.9971 17.7188C98.0264 18.0654 98.1118 18.3755 98.2534 18.6489C98.3999 18.9175 98.605 19.1299 98.8687 19.2861C99.1323 19.4375 99.4521 19.5132 99.8281 19.5132C100.219 19.5132 100.583 19.4644 100.919 19.3667C101.261 19.2642 101.593 19.1152 101.916 18.9199L102.494 20.2383C102.167 20.502 101.754 20.7217 101.256 20.8975C100.763 21.0684 100.197 21.1538 99.5571 21.1538ZM98.0264 16.2612H100.67V16.0708C100.67 15.7485 100.626 15.4727 100.539 15.2432C100.456 15.0088 100.319 14.8281 100.128 14.7012C99.9429 14.5742 99.7012 14.5107 99.4033 14.5107C99.1201 14.5107 98.8809 14.5864 98.6855 14.7378C98.4902 14.8843 98.3364 15.0869 98.2241 15.3457C98.1167 15.6045 98.0435 15.8975 98.0044 16.2246L98.0264 16.2612Z" fill="url(#paint1_linear_2_44)"/>
<path d="M60.7607 51.1538C59.9746 51.1538 59.2593 51.0659 58.6147 50.8901C57.9702 50.7144 57.3354 50.4092 56.7104 49.9746V47.3965H58.3657L58.5928 48.9126C58.8125 49.0981 59.1152 49.2495 59.501 49.3667C59.8867 49.479 60.3066 49.5352 60.7607 49.5352C61.1465 49.5352 61.4712 49.4814 61.7349 49.374C62.0034 49.2666 62.2061 49.1152 62.3428 48.9199C62.4844 48.7197 62.5552 48.4854 62.5552 48.2168C62.5552 47.9629 62.4917 47.7383 62.3647 47.543C62.2427 47.3428 62.0376 47.1621 61.7495 47.001C61.4663 46.835 61.0806 46.6763 60.5923 46.5249C59.7476 46.2759 59.0469 46.0049 58.4902 45.7119C57.9385 45.4141 57.5234 45.0601 57.2451 44.6499C56.9717 44.2349 56.835 43.7368 56.835 43.1558C56.835 42.5796 56.9937 42.0718 57.311 41.6323C57.6333 41.188 58.0776 40.8389 58.644 40.585C59.2104 40.3311 59.8647 40.1992 60.6069 40.1895C61.4272 40.1797 62.1523 40.2773 62.7822 40.4824C63.417 40.6875 63.9639 40.9731 64.4229 41.3394V43.7417H62.8188L62.5405 42.2769C62.355 42.1597 62.1035 42.0571 61.7861 41.9692C61.4736 41.8813 61.1172 41.8374 60.7168 41.8374C60.375 41.8374 60.0723 41.8887 59.8086 41.9912C59.5498 42.0938 59.3447 42.2427 59.1934 42.438C59.042 42.6333 58.9663 42.8701 58.9663 43.1484C58.9663 43.3877 59.0322 43.5977 59.1641 43.7783C59.2959 43.9541 59.5156 44.1226 59.8232 44.2837C60.1357 44.4399 60.5654 44.6084 61.1123 44.7891C62.2891 45.1162 63.1802 45.5483 63.7856 46.0854C64.396 46.6226 64.7012 47.3281 64.7012 48.2021C64.7012 48.8076 64.5376 49.3325 64.2104 49.7769C63.8833 50.2163 63.4243 50.5557 62.8335 50.7949C62.2427 51.0342 61.5518 51.1538 60.7607 51.1538ZM69.396 51.1538C68.6392 51.1538 67.9775 50.9878 67.4111 50.6558C66.8447 50.3188 66.4053 49.8574 66.0928 49.2715C65.7852 48.6855 65.6313 48.0166 65.6313 47.2646V46.9717C65.6313 46.1855 65.7778 45.4897 66.0708 44.8843C66.3638 44.2739 66.7764 43.7954 67.3086 43.4487C67.8457 43.0972 68.478 42.9238 69.2056 42.9287C69.9233 42.9287 70.5264 43.0703 71.0146 43.3535C71.5029 43.6367 71.874 44.0444 72.1279 44.5767C72.3818 45.1089 72.5088 45.7534 72.5088 46.5103V47.6748H67.8506L67.8359 47.7188C67.8652 48.0654 67.9507 48.3755 68.0923 48.6489C68.2388 48.9175 68.4438 49.1299 68.7075 49.2861C68.9712 49.4375 69.291 49.5132 69.667 49.5132C70.0576 49.5132 70.4214 49.4644 70.7583 49.3667C71.1001 49.2642 71.4321 49.1152 71.7544 48.9199L72.333 50.2383C72.0059 50.502 71.5933 50.7217 71.0952 50.8975C70.6021 51.0684 70.0356 51.1538 69.396 51.1538ZM67.8652 46.2612H70.5093V46.0708C70.5093 45.7485 70.4653 45.4727 70.3774 45.2432C70.2944 45.0088 70.1577 44.8281 69.9673 44.7012C69.7817 44.5742 69.54 44.5107 69.2422 44.5107C68.959 44.5107 68.7197 44.5864 68.5244 44.7378C68.3291 44.8843 68.1753 45.0869 68.063 45.3457C67.9556 45.6045 67.8823 45.8975 67.8433 46.2246L67.8652 46.2612ZM73.6587 51V49.7183L74.6841 49.4985V44.584L73.5488 44.3643V43.0752H76.6763L76.7568 44.0566L76.7715 44.2324C76.9668 43.8027 77.2085 43.478 77.4966 43.2583C77.7847 43.0386 78.1289 42.9287 78.5293 42.9287C78.6562 42.9287 78.7954 42.9409 78.9468 42.9653C79.0981 42.9849 79.2324 43.0117 79.3496 43.0459L79.1226 45.0161L78.0605 44.9575C77.7578 44.9429 77.5112 44.9941 77.3208 45.1113C77.1353 45.2285 76.9692 45.397 76.8228 45.6167V49.4985L77.8481 49.7183V51H73.6587ZM83.0703 51L80.6753 44.4961L79.8184 44.3643V43.0752H83.6636V44.3569L82.8286 44.5034L84.0225 48.0996L84.2056 48.7148H84.2495L84.4546 48.0996L85.7656 44.5107L84.7915 44.3569V43.0752H88.6294V44.3643L87.7505 44.5107L85.2456 51H83.0703ZM89.1934 51V49.7183L90.2261 49.4985V44.584L89.0835 44.3643V43.0752H92.3647V49.4985L93.3901 49.7183V51H89.1934ZM90.1528 41.3979V39.5742H92.3647V41.3979H90.1528ZM97.8359 51.1538C97.0742 51.1538 96.415 50.9829 95.8584 50.6411C95.3066 50.2993 94.8818 49.8281 94.584 49.2275C94.2861 48.6221 94.1372 47.9312 94.1372 47.1548V46.9351C94.1372 46.1538 94.2886 45.4629 94.5913 44.8623C94.894 44.2617 95.3213 43.7905 95.873 43.4487C96.4248 43.1021 97.0742 42.9287 97.8213 42.9287C98.5342 42.9287 99.147 43.041 99.6597 43.2656C100.177 43.4854 100.597 43.7417 100.919 44.0347L100.905 46.3052H99.2935L99.0078 44.8916C98.8906 44.7744 98.7417 44.6792 98.561 44.606C98.3804 44.5327 98.1973 44.4961 98.0117 44.4961C97.6211 44.4961 97.2964 44.5938 97.0376 44.7891C96.7837 44.9844 96.5933 45.2627 96.4663 45.624C96.3394 45.9854 96.2759 46.4224 96.2759 46.9351V47.1548C96.2759 47.6968 96.3467 48.1436 96.4883 48.4951C96.6299 48.8418 96.8179 49.0981 97.0522 49.2642C97.2915 49.4302 97.5576 49.5132 97.8506 49.5132C98.2266 49.5132 98.5269 49.4155 98.7515 49.2202C98.981 49.02 99.1372 48.7393 99.2202 48.3779H101.051L101.073 48.4219C100.99 48.9834 100.824 49.4692 100.575 49.8794C100.331 50.2896 99.9844 50.6045 99.5352 50.8242C99.0908 51.0439 98.5244 51.1538 97.8359 51.1538ZM105.827 51.1538C105.07 51.1538 104.408 50.9878 103.842 50.6558C103.275 50.3188 102.836 49.8574 102.523 49.2715C102.216 48.6855 102.062 48.0166 102.062 47.2646V46.9717C102.062 46.1855 102.208 45.4897 102.501 44.8843C102.794 44.2739 103.207 43.7954 103.739 43.4487C104.276 43.0972 104.909 42.9238 105.636 42.9287C106.354 42.9287 106.957 43.0703 107.445 43.3535C107.934 43.6367 108.305 44.0444 108.559 44.5767C108.812 45.1089 108.939 45.7534 108.939 46.5103V47.6748H104.281L104.267 47.7188C104.296 48.0654 104.381 48.3755 104.523 48.6489C104.669 48.9175 104.875 49.1299 105.138 49.2861C105.402 49.4375 105.722 49.5132 106.098 49.5132C106.488 49.5132 106.852 49.4644 107.189 49.3667C107.531 49.2642 107.863 49.1152 108.185 48.9199L108.764 50.2383C108.437 50.502 108.024 50.7217 107.526 50.8975C107.033 51.0684 106.466 51.1538 105.827 51.1538ZM104.296 46.2612H106.94V46.0708C106.94 45.7485 106.896 45.4727 106.808 45.2432C106.725 45.0088 106.588 44.8281 106.398 44.7012C106.212 44.5742 105.971 44.5107 105.673 44.5107C105.39 44.5107 105.15 44.5864 104.955 44.7378C104.76 44.8843 104.606 45.0869 104.494 45.3457C104.386 45.6045 104.313 45.8975 104.274 46.2246L104.296 46.2612Z" fill="url(#paint2_linear_2_44)"/>
<path d="M56.4102 36V34.7183L57.5454 34.4985V26.8447L56.4102 26.625V25.3359H61.4639C62.2842 25.3359 62.9873 25.4629 63.5732 25.7168C64.1592 25.9707 64.6084 26.3345 64.9209 26.8081C65.2383 27.2817 65.397 27.8506 65.397 28.5146C65.397 29.1396 65.2407 29.6987 64.9282 30.1919C64.6157 30.6851 64.1812 31.0732 63.6245 31.3564C63.0679 31.6396 62.4258 31.7837 61.6982 31.7886H59.6841V34.4985L60.8267 34.7183V36H56.4102ZM63.2729 36L61.4785 31.3931L63.4048 30.917L64.9575 34.5059L65.8657 34.7183V36H63.2729ZM59.6841 30.1406H61.4272C62.0425 30.1406 62.5015 30.0112 62.8042 29.7524C63.1118 29.4888 63.2656 29.1079 63.2656 28.6099C63.2656 28.1167 63.1143 27.7236 62.8115 27.4307C62.5088 27.1328 62.0596 26.9839 61.4639 26.9839H59.6841V30.1406ZM70.5679 36.1538C69.811 36.1538 69.1494 35.9878 68.583 35.6558C68.0166 35.3188 67.5771 34.8574 67.2646 34.2715C66.957 33.6855 66.8032 33.0166 66.8032 32.2646V31.9717C66.8032 31.1855 66.9497 30.4897 67.2427 29.8843C67.5356 29.2739 67.9482 28.7954 68.4805 28.4487C69.0176 28.0972 69.6499 27.9238 70.3774 27.9287C71.0952 27.9287 71.6982 28.0703 72.1865 28.3535C72.6748 28.6367 73.0459 29.0444 73.2998 29.5767C73.5537 30.1089 73.6807 30.7534 73.6807 31.5103V32.6748H69.0225L69.0078 32.7188C69.0371 33.0654 69.1226 33.3755 69.2642 33.6489C69.4106 33.9175 69.6157 34.1299 69.8794 34.2861C70.1431 34.4375 70.4629 34.5132 70.8389 34.5132C71.2295 34.5132 71.5933 34.4644 71.9302 34.3667C72.272 34.2642 72.604 34.1152 72.9263 33.9199L73.5049 35.2383C73.1777 35.502 72.7651 35.7217 72.2671 35.8975C71.7739 36.0684 71.2075 36.1538 70.5679 36.1538ZM69.0371 31.2612H71.6812V31.0708C71.6812 30.7485 71.6372 30.4727 71.5493 30.2432C71.4663 30.0088 71.3296 29.8281 71.1392 29.7012C70.9536 29.5742 70.7119 29.5107 70.4141 29.5107C70.1309 29.5107 69.8916 29.5864 69.6963 29.7378C69.501 29.8843 69.3472 30.0869 69.2349 30.3457C69.1274 30.6045 69.0542 30.8975 69.0151 31.2246L69.0371 31.2612ZM74.6182 39.0469V37.7578L75.6509 37.5381V29.584L74.5083 29.3643V28.0752H77.6138L77.7163 28.998C77.9507 28.6562 78.2339 28.3926 78.5659 28.207C78.8979 28.0215 79.2935 27.9287 79.7524 27.9287C80.3921 27.9287 80.939 28.1045 81.3931 28.4561C81.8472 28.8027 82.1938 29.2886 82.4331 29.9136C82.6772 30.5386 82.7993 31.2686 82.7993 32.1035V32.2573C82.7993 33.0386 82.6772 33.7222 82.4331 34.3081C82.1938 34.8892 81.8447 35.3433 81.3857 35.6704C80.9316 35.9927 80.3823 36.1538 79.7378 36.1538C79.313 36.1538 78.937 36.0781 78.6099 35.9268C78.2876 35.7705 78.0117 35.5435 77.7822 35.2456V37.5381L78.8149 37.7578V39.0469H74.6182ZM79.1006 34.5132C79.6475 34.5132 80.043 34.3105 80.2871 33.9053C80.5361 33.5 80.6606 32.9507 80.6606 32.2573V32.1035C80.6606 31.6006 80.6045 31.1636 80.4922 30.7925C80.3799 30.4165 80.2065 30.1235 79.9722 29.9136C79.7427 29.6987 79.4473 29.5913 79.0859 29.5913C78.793 29.5913 78.5342 29.6572 78.3096 29.7891C78.0898 29.9209 77.9141 30.1089 77.7822 30.353V33.8247C77.9141 34.0493 78.0898 34.2202 78.3096 34.3374C78.5342 34.4546 78.7979 34.5132 79.1006 34.5132ZM86.4028 36.1538C85.6167 36.1538 84.9917 35.9438 84.5278 35.5239C84.064 35.0991 83.832 34.5229 83.832 33.7954C83.832 33.2974 83.9663 32.8604 84.2349 32.4844C84.5083 32.1084 84.9087 31.813 85.436 31.5981C85.9683 31.3833 86.6226 31.2759 87.3989 31.2759H88.4463V30.6899C88.4463 30.3091 88.334 30.0015 88.1094 29.7671C87.8896 29.5278 87.5576 29.4082 87.1133 29.4082C86.8838 29.4082 86.6787 29.4375 86.498 29.4961C86.3174 29.5498 86.1514 29.6279 86 29.7305L85.8315 30.7778H84.2935L84.2642 28.7197C84.6792 28.4854 85.1284 28.2949 85.6118 28.1484C86.0952 28.002 86.6348 27.9287 87.2305 27.9287C88.2656 27.9287 89.0835 28.1704 89.6841 28.6538C90.2847 29.1323 90.585 29.8184 90.585 30.7119V33.9785C90.585 34.0859 90.585 34.1934 90.585 34.3008C90.5898 34.4033 90.5996 34.5034 90.6143 34.6011L91.4419 34.7183V36H88.7905C88.7368 35.8633 88.6831 35.7168 88.6294 35.5605C88.5757 35.4043 88.5366 35.248 88.5122 35.0918C88.2583 35.4141 87.958 35.6729 87.6113 35.8682C87.2695 36.0586 86.8667 36.1538 86.4028 36.1538ZM86.9741 34.5718C87.272 34.5718 87.5552 34.5059 87.8237 34.374C88.0923 34.2373 88.2998 34.0591 88.4463 33.8394V32.5869H87.3916C86.9229 32.5869 86.5664 32.6943 86.3223 32.9092C86.083 33.124 85.9634 33.3828 85.9634 33.6855C85.9634 33.9688 86.0513 34.1885 86.2271 34.3447C86.4077 34.4961 86.6567 34.5718 86.9741 34.5718ZM92.1377 36V34.7183L93.1704 34.4985V29.584L92.0278 29.3643V28.0752H95.3091V34.4985L96.3345 34.7183V36H92.1377ZM93.0972 26.3979V24.5742H95.3091V26.3979H93.0972ZM97.2134 36V34.7183L98.2388 34.4985V29.584L97.1035 29.3643V28.0752H100.231L100.312 29.0566L100.326 29.2324C100.521 28.8027 100.763 28.478 101.051 28.2583C101.339 28.0386 101.684 27.9287 102.084 27.9287C102.211 27.9287 102.35 27.9409 102.501 27.9653C102.653 27.9849 102.787 28.0117 102.904 28.0459L102.677 30.0161L101.615 29.9575C101.312 29.9429 101.066 29.9941 100.875 30.1113C100.69 30.2285 100.524 30.397 100.377 30.6167V34.4985L101.403 34.7183V36H97.2134Z" fill="url(#paint3_linear_2_44)"/>
<defs>
<linearGradient id="paint0_linear_2_44" x1="28.9333" y1="9.33333" x2="28.9333" y2="51.3333" gradientUnits="userSpaceOnUse">
<stop stop-color="#BEC1C9"/>
<stop offset="0.325167" stop-color="#969BA9"/>
<stop offset="0.651573" stop-color="#5B6378"/>
<stop offset="1" stop-color="#293041"/>
</linearGradient>
<linearGradient id="paint1_linear_2_44" x1="80" y1="5" x2="80" y2="25" gradientUnits="userSpaceOnUse">
<stop stop-color="#BEC1C9"/>
<stop offset="0.325167" stop-color="#969BA9"/>
<stop offset="0.651573" stop-color="#5B6378"/>
<stop offset="1" stop-color="#293041"/>
</linearGradient>
<linearGradient id="paint2_linear_2_44" x1="83" y1="35" x2="83" y2="55" gradientUnits="userSpaceOnUse">
<stop stop-color="#BEC1C9"/>
<stop offset="0.325167" stop-color="#969BA9"/>
<stop offset="0.651573" stop-color="#5B6378"/>
<stop offset="1" stop-color="#293041"/>
</linearGradient>
<linearGradient id="paint3_linear_2_44" x1="80" y1="20" x2="80" y2="40" gradientUnits="userSpaceOnUse">
<stop stop-color="#BEC1C9"/>
<stop offset="0.325167" stop-color="#969BA9"/>
<stop offset="0.651573" stop-color="#5B6378"/>
<stop offset="1" stop-color="#293041"/>
</linearGradient>
</defs>
</svg>
