<svg width="60" height="82" viewBox="0 0 60 82" fill="none" xmlns="http://www.w3.org/2000/svg">
<g filter="url(#filter0_d_4_304)">
<mask id="mask0_4_304" style="mask-type:alpha" maskUnits="userSpaceOnUse" x="2" y="0" width="56" height="56">
<rect x="2" width="56" height="56" fill="#D9D9D9"/>
</mask>
<g mask="url(#mask0_4_304)">
<path d="M9.70001 46.6667C8.76668 46.6667 7.95001 46.3167 7.25001 45.6167C6.55001 44.9167 6.20001 44.1 6.20001 43.1667V12.8333C6.20001 11.9 6.55001 11.0833 7.25001 10.3833C7.95001 9.68333 8.76668 9.33333 9.70001 9.33333H50.3C51.2333 9.33333 52.05 9.68333 52.75 10.3833C53.45 11.0833 53.8 11.9 53.8 12.8333H35.8333C33.85 12.8333 32.1875 13.5139 30.8458 14.875C29.5042 16.2361 28.8333 17.8889 28.8333 19.8333V21H16V24.5H28.8333V31.5H16V35H29.0083C29.4361 37.6833 30.4472 40.0458 32.0417 42.0875C33.6361 44.1292 35.6583 45.6556 38.1083 46.6667H9.70001ZM45.75 51.3333C44.7875 51.3333 43.9636 50.9906 43.2781 50.3052C42.5927 49.6198 42.25 48.7958 42.25 47.8333V44.2167C39.4111 43.7889 37.0486 42.4958 35.1625 40.3375C33.2764 38.1792 32.3333 35.6222 32.3333 32.6667V19.8333C32.3333 18.8708 32.6688 18.0469 33.3396 17.3615C34.0104 16.676 34.8417 16.3333 35.8333 16.3333H52.1667C53.1292 16.3333 53.9531 16.676 54.6385 17.3615C55.324 18.0469 55.6667 18.8708 55.6667 19.8333V32.6667C55.6667 35.6222 54.7139 38.1792 52.8083 40.3375C50.9028 42.4958 48.55 43.7889 45.75 44.2167V47.8333H53.3333V51.3333H45.75ZM48.0833 30.9167H52.4583V19.5417H35.5417V26.25H38.75C39.9357 26.25 41.0585 26.5222 42.1185 27.0667C43.1784 27.6111 44.0778 28.35 44.8167 29.2833C45.2056 29.8278 45.682 30.2361 46.2458 30.5083C46.8097 30.7806 47.4222 30.9167 48.0833 30.9167Z" fill="url(#paint0_linear_4_304)"/>
</g>
<path d="M13.1787 73.2666C11.9346 73.2666 10.8005 73.0339 9.77637 72.5684C8.75228 72.1029 7.86784 71.4512 7.12305 70.6133C6.38672 69.7669 5.81966 68.7767 5.42188 67.6426C5.02409 66.5 4.8252 65.2516 4.8252 63.8975V63.6182C4.8252 62.2725 5.02409 61.0326 5.42188 59.8984C5.81966 58.7559 6.38672 57.7614 7.12305 56.915C7.85938 56.0687 8.73958 55.4128 9.76367 54.9473C10.7878 54.4818 11.9219 54.249 13.166 54.249C14.4186 54.249 15.5612 54.4818 16.5938 54.9473C17.6263 55.4128 18.515 56.0687 19.2598 56.915C20.0046 57.7614 20.5758 58.7559 20.9736 59.8984C21.3799 61.0326 21.583 62.2725 21.583 63.6182V63.8975C21.583 65.2516 21.3799 66.5 20.9736 67.6426C20.5758 68.7767 20.0046 69.7669 19.2598 70.6133C18.515 71.4512 17.6263 72.1029 16.5938 72.5684C15.5697 73.0339 14.4313 73.2666 13.1787 73.2666ZM13.1787 70.3848C14.2282 70.3848 15.0999 70.1139 15.7939 69.5723C16.488 69.0306 17.0085 68.2731 17.3555 67.2998C17.7109 66.3265 17.8887 65.1924 17.8887 63.8975V63.5928C17.8887 62.3148 17.7109 61.1934 17.3555 60.2285C17 59.2552 16.471 58.4977 15.7686 57.9561C15.0745 57.4144 14.207 57.1436 13.166 57.1436C12.1335 57.1436 11.2744 57.4144 10.5889 57.9561C9.90332 58.4893 9.38704 59.2383 9.04004 60.2031C8.7015 61.168 8.53223 62.2979 8.53223 63.5928V63.8975C8.53223 65.1924 8.7015 66.3265 9.04004 67.2998C9.38704 68.2731 9.90332 69.0306 10.5889 69.5723C11.2829 70.1139 12.1462 70.3848 13.1787 70.3848ZM23.0684 73V70.7783L25.0361 70.3975V57.1309L23.0684 56.75V54.5156H31.8281C33.25 54.5156 34.4688 54.7357 35.4844 55.1758C36.5 55.6159 37.2786 56.2464 37.8203 57.0674C38.3704 57.8883 38.6455 58.8743 38.6455 60.0254C38.6455 61.1087 38.3747 62.0778 37.833 62.9326C37.2913 63.7874 36.5381 64.4603 35.5732 64.9512C34.6084 65.4421 33.4954 65.6917 32.2344 65.7002H28.7432V70.3975L30.7236 70.7783V73H23.0684ZM34.9639 73L31.8535 65.0146L35.1924 64.1895L37.8838 70.4102L39.458 70.7783V73H34.9639ZM28.7432 62.8438H31.7646C32.8311 62.8438 33.6266 62.6195 34.1514 62.1709C34.6846 61.7139 34.9512 61.0537 34.9512 60.1904C34.9512 59.3356 34.6888 58.6543 34.1641 58.1465C33.6393 57.6302 32.8607 57.3721 31.8281 57.3721H28.7432V62.8438ZM48.4844 73.2666C47.1217 73.2666 45.8818 73.1143 44.7646 72.8096C43.6475 72.5049 42.5472 71.9759 41.4639 71.2227V66.7539H44.333L44.7266 69.3818C45.1074 69.7035 45.6322 69.9658 46.3008 70.1689C46.9694 70.3636 47.6973 70.4609 48.4844 70.4609C49.153 70.4609 49.7158 70.3678 50.1729 70.1816C50.6383 69.9954 50.9896 69.7331 51.2266 69.3945C51.472 69.0475 51.5947 68.6413 51.5947 68.1758C51.5947 67.7357 51.4847 67.3464 51.2646 67.0078C51.0531 66.6608 50.6976 66.3477 50.1982 66.0684C49.7074 65.7806 49.0387 65.5055 48.1924 65.2432C46.7282 64.8115 45.5137 64.3418 44.5488 63.834C43.5924 63.3177 42.873 62.7041 42.3906 61.9932C41.9167 61.2738 41.6797 60.4105 41.6797 59.4033C41.6797 58.4046 41.9548 57.5244 42.5049 56.7627C43.0635 55.9925 43.8337 55.3874 44.8154 54.9473C45.7972 54.5072 46.9313 54.2786 48.2178 54.2617C49.6396 54.2448 50.8965 54.4141 51.9883 54.7695C53.0885 55.125 54.0365 55.6201 54.832 56.2549V60.4189H52.0518L51.5693 57.8799C51.2477 57.6768 50.8118 57.499 50.2617 57.3467C49.7201 57.1943 49.1022 57.1182 48.4082 57.1182C47.8158 57.1182 47.291 57.207 46.834 57.3848C46.3854 57.5625 46.0299 57.8206 45.7676 58.1592C45.5052 58.4977 45.374 58.9082 45.374 59.3906C45.374 59.8053 45.4883 60.1693 45.7168 60.4824C45.9453 60.7871 46.3262 61.0791 46.8594 61.3584C47.401 61.6292 48.1458 61.9212 49.0938 62.2344C51.1335 62.8014 52.6781 63.5505 53.7275 64.4814C54.7855 65.4124 55.3145 66.6354 55.3145 68.1504C55.3145 69.1999 55.0309 70.1097 54.4639 70.8799C53.8968 71.6416 53.1012 72.2298 52.0771 72.6445C51.0531 73.0592 49.8555 73.2666 48.4844 73.2666Z" fill="url(#paint1_linear_4_304)"/>
</g>
<defs>
<filter id="filter0_d_4_304" x="0.825195" y="9.33333" width="58.8415" height="71.9333" filterUnits="userSpaceOnUse" color-interpolation-filters="sRGB">
<feFlood flood-opacity="0" result="BackgroundImageFix"/>
<feColorMatrix in="SourceAlpha" type="matrix" values="0 0 0 0 0 0 0 0 0 0 0 0 0 0 0 0 0 0 127 0" result="hardAlpha"/>
<feOffset dy="4"/>
<feGaussianBlur stdDeviation="2"/>
<feComposite in2="hardAlpha" operator="out"/>
<feColorMatrix type="matrix" values="0 0 0 0 0 0 0 0 0 0 0 0 0 0 0 0 0 0 0.25 0"/>
<feBlend mode="normal" in2="BackgroundImageFix" result="effect1_dropShadow_4_304"/>
<feBlend mode="normal" in="SourceGraphic" in2="effect1_dropShadow_4_304" result="shape"/>
</filter>
<linearGradient id="paint0_linear_4_304" x1="30.9333" y1="9.33333" x2="30.9333" y2="51.3333" gradientUnits="userSpaceOnUse">
<stop stop-color="#BEC1C9"/>
<stop offset="0.325167" stop-color="#969BA9"/>
<stop offset="0.651573" stop-color="#5B6378"/>
<stop offset="1" stop-color="#293041"/>
</linearGradient>
<linearGradient id="paint1_linear_4_304" x1="30.5" y1="46" x2="30.5" y2="80" gradientUnits="userSpaceOnUse">
<stop stop-color="#BEC1C9"/>
<stop offset="0.325167" stop-color="#969BA9"/>
<stop offset="0.651573" stop-color="#5B6378"/>
<stop offset="1" stop-color="#293041"/>
</linearGradient>
</defs>
</svg>
